<?xml version="1.0" encoding="UTF-8"?>
<svg xmlns="http://www.w3.org/2000/svg" viewBox="0 0 512 512">
  <defs>
    <style>
      .cls-1 {
        fill: #938c86;
      }

      .cls-2 {
        fill: #fff;
        font-family: SourceSansPro-Semibold, 'Source Sans Pro';
        font-size: 30px;
        font-weight: 600;
      }

      .cls-3 {
        letter-spacing: -.02em;
      }

      .cls-4 {
        letter-spacing: 0em;
      }

      .cls-5 {
        fill: #7cdee8;
      }
    </style>
  </defs>
  <g id="MLOPS_ICONS" data-name="MLOPS ICONS">
    <rect class="cls-1" x="78.51" y="86.33" width="355.16" height="304.1"/>
    <g>
      <path class="cls-5" d="m128.49,428.38c-23.24,0-42.15-18.91-42.15-42.14s18.91-42.15,42.15-42.15h255.02c23.24,0,42.14,18.91,42.14,42.15s-18.91,42.14-42.14,42.14h-255.02Z"/>
      <path d="m383.51,352c18.9,0,34.23,15.32,34.23,34.23h0c0,18.9-15.32,34.23-34.23,34.23h-255.02c-18.9,0-34.23-15.32-34.23-34.23h0c0-18.9,15.32-34.23,34.23-34.23h255.02m0-15.83h-255.02c-27.6,0-50.06,22.46-50.06,50.06s22.46,50.06,50.06,50.06h255.02c27.6,0,50.06-22.46,50.06-50.06s-22.46-50.06-50.06-50.06h0Z"/>
    </g>
  </g>
  <g id="TEXT">
    <text class="cls-2" transform="translate(0 -8.09)"><tspan x="0" y="0">BLIP CA</tspan><tspan class="cls-3" x="98.91" y="0">P</tspan><tspan class="cls-4" x="115.8" y="0">TION</tspan></text>
  </g>
</svg>