<?xml version="1.0" encoding="UTF-8"?>
<svg xmlns="http://www.w3.org/2000/svg" xmlns:xlink="http://www.w3.org/1999/xlink" viewBox="0 0 512 512">
  <defs>
    <style>
      .cls-1 {
        fill: url(#linear-gradient-2);
      }

      .cls-2, .cls-3 {
        fill: #fff;
      }

      .cls-4 {
        fill: #938c86;
      }

      .cls-3 {
        font-family: SourceSansPro-Semibold, 'Source Sans Pro';
        font-size: 30px;
        font-weight: 600;
      }

      .cls-5 {
        letter-spacing: -.02em;
      }

      .cls-6 {
        fill: #5e5a58;
      }

      .cls-7 {
        fill: url(#linear-gradient-5);
      }

      .cls-8 {
        fill: #7cdee8;
      }

      .cls-9 {
        clip-path: url(#clippath);
      }

      .cls-10 {
        fill: none;
      }

      .cls-11 {
        fill: #014759;
      }

      .cls-12 {
        letter-spacing: 0em;
      }

      .cls-13 {
        fill: url(#linear-gradient-3);
      }

      .cls-14 {
        fill: url(#linear-gradient);
      }

      .cls-15 {
        fill: #ffbc00;
      }

      .cls-16 {
        fill: url(#linear-gradient-4);
      }
    </style>
    <clipPath id="clippath">
      <rect class="cls-10" x="599.47" y="95.29" width="456.93" height="317.32" rx="126.1" ry="126.1"/>
    </clipPath>
    <linearGradient id="linear-gradient" x1="833.37" y1="-55.06" x2="833.37" y2="641.2" gradientUnits="userSpaceOnUse">
      <stop offset=".45" stop-color="#007da4"/>
      <stop offset=".47" stop-color="#0f85a9"/>
      <stop offset=".51" stop-color="#399ab8"/>
      <stop offset=".56" stop-color="#7cbcd0"/>
      <stop offset=".62" stop-color="#d8ebf1"/>
      <stop offset=".65" stop-color="#fff"/>
    </linearGradient>
    <linearGradient id="linear-gradient-2" x1="134.63" y1="60.89" x2="134.63" y2="295.06" xlink:href="#linear-gradient"/>
    <linearGradient id="linear-gradient-3" x1="376.88" y1="60.89" x2="376.88" y2="295.06" gradientUnits="userSpaceOnUse">
      <stop offset=".45" stop-color="#ffbc00"/>
      <stop offset=".47" stop-color="#ffc00f"/>
      <stop offset=".51" stop-color="#ffcb39"/>
      <stop offset=".56" stop-color="#ffdc7c"/>
      <stop offset=".62" stop-color="#fff4d8"/>
      <stop offset=".65" stop-color="#fff"/>
    </linearGradient>
    <linearGradient id="linear-gradient-4" x1="134.63" y1="228.51" x2="134.63" y2="462.68" gradientUnits="userSpaceOnUse">
      <stop offset=".45" stop-color="#fe3da6"/>
      <stop offset=".67" stop-color="#ffbc00"/>
    </linearGradient>
    <linearGradient id="linear-gradient-5" x1="376.88" y1="228.51" x2="376.88" y2="462.68" gradientUnits="userSpaceOnUse">
      <stop offset=".45" stop-color="#000"/>
      <stop offset=".48" stop-color="#000c0f"/>
      <stop offset=".53" stop-color="#002b39"/>
      <stop offset=".61" stop-color="#005e7b"/>
      <stop offset=".65" stop-color="#007da4"/>
    </linearGradient>
  </defs>
  <g id="MLOPS_ICONS" data-name="MLOPS ICONS">
    <g class="cls-9">
      <g>
        <rect class="cls-14" x="485.24" y="35.82" width="696.26" height="483.52"/>
        <path class="cls-4" d="m485.24,418.08l119.63-44.74s165.78-99.41,173.05-103.04c7.27-3.64,88.7-12.36,88.7-12.36l172.32,102.52,129.42,113.47,13.26,45.03H485.36l-.13-100.88Z"/>
        <path class="cls-2" d="m881.45,210.57h-22.9l-59.71,12.5s-56.71,49.21-91.61,74.3c-32.34,23.24-165.79,93.3-185.21,103.46l-36.78,17.26.21,28.46c20.58-8.42,88.52-41.74,97.44-44.72,13.09-4.36,22.82,5.69,41.51-4.36,22.02-11.85,29.55-14.77,45.91-24.12,16.36-9.35,64.16-21.41,50.34,6.95-8.36,17.15-19.44,40.88,5.64,22.34,8.42-6.23,24.62-17.09,35.63-24.72,11.01-7.63,28.19-4.2,29.28,17.61,1.09,21.81,2.18,29.45,12,35.99,9.82,6.54,16.36,49.08,18.54,23.99,2.18-25.08-2.66-69.8,11.76-90.52,14.42-20.72,20.96-32.72,27.51-37.08,6.54-4.36,15.27,22.9,25.08,41.44,9.82,18.54,18.3,25.29,23.33,11.01,5.03-14.28-2.61-52.69,9.39-32.94,12,19.75,19.63,37.2,45.81,61.19,26.17,23.99,68.71,61.08,58.89,38.17-9.82-22.9-17.45-45.81-23.99-61.08-6.54-15.27-21.12-40.35-8.92-28.36,12.2,12,37.28,40.35,67.82,61.08,24.53,16.64,77.16,49.44,100.34,55.5v-77.32s-128.89-72.57-156.16-90.14c-27.27-17.57-121.14-95.91-121.14-95.91Z"/>
        <path class="cls-2" d="m1158.59,58.72v437.34H508.14V58.72h650.45m22.9-22.9H485.24v483.15h696.26V35.82h0Z"/>
      </g>
    </g>
    <path d="m251.72,91.46v162.62H17.54V91.46h234.17m7.09-7.09H10.45v176.8h248.35V84.37h0Z"/>
    <g>
      <rect class="cls-1" x="17.54" y="91.46" width="234.17" height="162.62"/>
      <path class="cls-4" d="m17.54,220.02l40.24-15.05s55.76-33.43,58.2-34.66c2.45-1.22,29.83-4.16,29.83-4.16l57.96,34.48,43.53,38.16,4.46,15.15H17.58l-.04-33.93Z"/>
      <path class="cls-2" d="m150.8,150.23h-7.7l-20.08,4.21s-19.07,16.55-30.81,24.99c-10.88,7.82-55.76,31.38-62.29,34.8l-12.37,5.8.07,9.57c6.92-2.83,29.77-14.04,32.77-15.04,4.4-1.47,7.68,1.91,13.96-1.47,7.41-3.99,9.94-4.97,15.44-8.11s21.58-7.2,16.93,2.34c-2.81,5.77-6.54,13.75,1.9,7.51,2.83-2.09,8.28-5.75,11.98-8.31,3.7-2.57,9.48-1.41,9.85,5.92.37,7.34.73,9.9,4.04,12.1,3.3,2.2,5.5,16.51,6.24,8.07.73-8.44-.9-23.48,3.95-30.45,4.85-6.97,7.05-11,9.25-12.47,2.2-1.47,5.14,7.7,8.44,13.94,3.3,6.24,6.16,8.51,7.85,3.7,1.69-4.8-.88-17.72,3.16-11.08,4.03,6.64,6.6,12.51,15.41,20.58,8.8,8.07,23.11,20.54,19.81,12.84-3.3-7.7-5.87-15.41-8.07-20.54-2.2-5.14-7.1-13.57-3-9.54,4.1,4.03,12.54,13.57,22.81,20.54,8.25,5.6,25.95,16.63,33.75,18.67v-26s-43.35-24.41-52.52-30.32c-9.17-5.91-40.74-32.26-40.74-32.26Z"/>
      <path class="cls-6" d="m112.07,218.94l6.64-20.74s7.48-29.1,9.92-30.32,29.83-4.16,29.83-4.16l57.96,34.48,35.34,29.47v26.29H70.62l41.45-35.01Z"/>
      <path class="cls-11" d="m150.21,205.53c5.78,4.04,11.42,10.67,13.11,5.87,1.69-4.8,7.04-2.27,15.84,5.8,8.8,8.07,24.21,18.43,20.38,10.98-3.3-6.42-8.99-16.23,13.48-6.77,9.19,3.87,15.2-7.68,38.73,7.48v-12.72s-50.61-28.31-59.78-34.22c-7.3-4.7-37.49-28.76-37.49-28.76l-26.88,12.98-11.08,39.49s9.53,10.94,16.64,6.3c5.78-3.76,11.28-10.46,17.06-6.42Z"/>
      <path class="cls-2" d="m244.01,99.16v147.09H25.24V99.16h218.77m7.7-7.7H17.54v162.5h234.17V91.46h0Z"/>
    </g>
    <path d="m493.97,91.46v162.62h-234.17V91.46h234.17m7.09-7.09h-248.35v176.8h248.35V84.37h0Z"/>
    <rect class="cls-13" x="259.79" y="91.46" width="234.17" height="162.62"/>
    <path class="cls-15" d="m259.79,220.02l40.24-15.05s55.76-33.43,58.2-34.66c2.45-1.22,29.83-4.16,29.83-4.16l57.96,34.48,43.53,38.16,4.46,15.15h-234.17l-.04-33.93Z"/>
    <path class="cls-2" d="m393.05,150.23h-7.7l-20.08,4.21s-19.07,16.55-30.81,24.99c-10.88,7.82-55.76,31.38-62.29,34.8l-12.37,5.8.07,9.57c6.92-2.83,29.77-14.04,32.77-15.04,4.4-1.47,7.68,1.91,13.96-1.47,7.41-3.99,9.94-4.97,15.44-8.11s21.58-7.2,16.93,2.34c-2.81,5.77-6.54,13.75,1.9,7.51,2.83-2.09,8.28-5.75,11.98-8.31,3.7-2.57,9.48-1.41,9.85,5.92.37,7.34.73,9.9,4.04,12.1,3.3,2.2,5.5,16.51,6.24,8.07.73-8.44-.9-23.48,3.95-30.45,4.85-6.97,7.05-11,9.25-12.47,2.2-1.47,5.14,7.7,8.44,13.94,3.3,6.24,6.16,8.51,7.85,3.7,1.69-4.8-.88-17.72,3.16-11.08,4.03,6.64,6.6,12.51,15.41,20.58,8.8,8.07,23.11,20.54,19.81,12.84-3.3-7.7-5.87-15.41-8.07-20.54-2.2-5.14-7.1-13.57-3-9.54,4.1,4.03,12.54,13.57,22.81,20.54,8.25,5.6,25.95,16.63,33.75,18.67v-26s-43.35-24.41-52.52-30.32c-9.17-5.91-40.74-32.26-40.74-32.26Z"/>
    <path class="cls-4" d="m354.32,218.94l6.64-20.74s7.48-29.1,9.92-30.32,29.83-4.16,29.83-4.16l57.96,34.48,35.34,29.47v26.29h-181.14l41.45-35.01Z"/>
    <path class="cls-11" d="m392.47,205.53c5.78,4.04,11.42,10.67,13.11,5.87,1.69-4.8,7.04-2.27,15.84,5.8,8.8,8.07,24.21,18.43,20.38,10.98-3.3-6.42-8.99-16.23,13.48-6.77,9.19,3.87,15.2-7.68,38.73,7.48v-12.72s-50.61-28.31-59.78-34.22c-7.3-4.7-37.49-28.76-37.49-28.76l-26.88,12.98-11.08,39.49s9.53,10.94,16.64,6.3c5.78-3.76,11.28-10.46,17.06-6.42Z"/>
    <path class="cls-2" d="m486.27,99.16v147.09h-218.77V99.16h218.77m7.7-7.7h-234.17v162.5h234.17V91.46h0Z"/>
    <path d="m251.72,259.07v162.62H17.54v-162.62h234.17m7.09-7.09H10.45v176.8h248.35v-176.8h0Z"/>
    <rect class="cls-16" x="17.54" y="259.07" width="234.17" height="162.62"/>
    <path class="cls-4" d="m17.54,387.64l40.24-15.05s55.76-33.43,58.2-34.66c2.45-1.22,29.83-4.16,29.83-4.16l57.96,34.48,43.53,38.16,4.46,15.15H17.58l-.04-33.93Z"/>
    <path class="cls-2" d="m150.8,317.85h-7.7l-20.08,4.21s-19.07,16.55-30.81,24.99c-10.88,7.82-55.76,31.38-62.29,34.8l-12.37,5.8.07,9.57c6.92-2.83,29.77-14.04,32.77-15.04,4.4-1.47,7.68,1.91,13.96-1.47,7.41-3.99,9.94-4.97,15.44-8.11,5.5-3.15,21.58-7.2,16.93,2.34-2.81,5.77-6.54,13.75,1.9,7.51,2.83-2.09,8.28-5.75,11.98-8.31,3.7-2.57,9.48-1.41,9.85,5.92.37,7.34.73,9.9,4.04,12.1,3.3,2.2,5.5,16.51,6.24,8.07.73-8.44-.9-23.48,3.95-30.45,4.85-6.97,7.05-11,9.25-12.47,2.2-1.47,5.14,7.7,8.44,13.94,3.3,6.24,6.16,8.51,7.85,3.7,1.69-4.8-.88-17.72,3.16-11.08,4.03,6.64,6.6,12.51,15.41,20.58,8.8,8.07,23.11,20.54,19.81,12.84-3.3-7.7-5.87-15.41-8.07-20.54-2.2-5.14-7.1-13.57-3-9.54,4.1,4.03,12.54,13.57,22.81,20.54,8.25,5.6,25.95,16.63,33.75,18.67v-26s-43.35-24.41-52.52-30.32c-9.17-5.91-40.74-32.26-40.74-32.26Z"/>
    <path d="m112.07,386.56l6.64-20.74s7.48-29.1,9.92-30.32c2.45-1.22,29.83-4.16,29.83-4.16l57.96,34.48,35.34,29.47v26.29H70.62l41.45-35.01Z"/>
    <path class="cls-11" d="m150.21,373.15c5.78,4.04,11.42,10.67,13.11,5.87,1.69-4.8,7.04-2.27,15.84,5.8,8.8,8.07,24.21,18.43,20.38,10.98-3.3-6.42-8.99-16.23,13.48-6.77,9.19,3.87,15.2-7.68,38.73,7.48v-12.72s-50.61-28.31-59.78-34.22c-7.3-4.7-37.49-28.76-37.49-28.76l-26.88,12.98-11.08,39.49s9.53,10.94,16.64,6.3c5.78-3.76,11.28-10.46,17.06-6.42Z"/>
    <path class="cls-2" d="m244.01,266.78v147.09H25.24v-147.09h218.77m7.7-7.7H17.54v162.5h234.17v-162.5h0Z"/>
    <path d="m493.97,259.07v162.62h-234.17v-162.62h234.17m7.09-7.09h-248.35v176.8h248.35v-176.8h0Z"/>
    <rect class="cls-7" x="259.79" y="259.07" width="234.17" height="162.62"/>
    <path class="cls-4" d="m259.79,387.64l40.24-15.05s55.76-33.43,58.2-34.66c2.45-1.22,29.83-4.16,29.83-4.16l57.96,34.48,43.53,38.16,4.46,15.15h-234.17l-.04-33.93Z"/>
    <path class="cls-8" d="m393.05,317.85h-7.7l-20.08,4.21s-19.07,16.55-30.81,24.99c-10.88,7.82-55.76,31.38-62.29,34.8l-12.37,5.8.07,9.57c6.92-2.83,29.77-14.04,32.77-15.04,4.4-1.47,7.68,1.91,13.96-1.47,7.41-3.99,9.94-4.97,15.44-8.11,5.5-3.15,21.58-7.2,16.93,2.34-2.81,5.77-6.54,13.75,1.9,7.51,2.83-2.09,8.28-5.75,11.98-8.31,3.7-2.57,9.48-1.41,9.85,5.92.37,7.34.73,9.9,4.04,12.1,3.3,2.2,5.5,16.51,6.24,8.07.73-8.44-.9-23.48,3.95-30.45,4.85-6.97,7.05-11,9.25-12.47,2.2-1.47,5.14,7.7,8.44,13.94,3.3,6.24,6.16,8.51,7.85,3.7,1.69-4.8-.88-17.72,3.16-11.08,4.03,6.64,6.6,12.51,15.41,20.58,8.8,8.07,23.11,20.54,19.81,12.84-3.3-7.7-5.87-15.41-8.07-20.54-2.2-5.14-7.1-13.57-3-9.54,4.1,4.03,12.54,13.57,22.81,20.54,8.25,5.6,25.95,16.63,33.75,18.67v-26s-43.35-24.41-52.52-30.32c-9.17-5.91-40.74-32.26-40.74-32.26Z"/>
    <path d="m354.32,386.56l6.64-20.74s7.48-29.1,9.92-30.32c2.45-1.22,29.83-4.16,29.83-4.16l57.96,34.48,35.34,29.47v26.29h-181.14l41.45-35.01Z"/>
    <path class="cls-11" d="m392.47,373.15c5.78,4.04,11.42,10.67,13.11,5.87,1.69-4.8,7.04-2.27,15.84,5.8,8.8,8.07,24.21,18.43,20.38,10.98-3.3-6.42-8.99-16.23,13.48-6.77,9.19,3.87,15.2-7.68,38.73,7.48v-12.72s-50.61-28.31-59.78-34.22c-7.3-4.7-37.49-28.76-37.49-28.76l-26.88,12.98-11.08,39.49s9.53,10.94,16.64,6.3c5.78-3.76,11.28-10.46,17.06-6.42Z"/>
    <path class="cls-2" d="m486.27,266.78v147.09h-218.77v-147.09h218.77m7.7-7.7h-234.17v162.5h234.17v-162.5h0Z"/>
  </g>
  <g id="TEXT">
    <text class="cls-3" transform="translate(-2.95 -7.39)"><tspan x="0" y="0">MEASURE IM</tspan><tspan class="cls-12" x="161.94" y="0">A</tspan><tspan x="178.38" y="0">GE SIMILARI</tspan><tspan class="cls-5" x="333" y="0">T</tspan><tspan x="348.9" y="0">Y</tspan></text>
  </g>
</svg>