<?xml version="1.0" encoding="UTF-8"?>
<svg xmlns="http://www.w3.org/2000/svg" viewBox="0 0 512 512">
  <defs>
    <style>
      .cls-1 {
        fill: #7cdee8;
      }

      .cls-1, .cls-2, .cls-3, .cls-4, .cls-5, .cls-6 {
        stroke: #fff;
        stroke-miterlimit: 10;
      }

      .cls-1, .cls-2, .cls-4, .cls-6 {
        stroke-width: 13px;
      }

      .cls-7 {
        fill: #fff;
        font-family: SourceSansPro-Semibold, 'Source Sans Pro';
        font-size: 30px;
        font-weight: 600;
      }

      .cls-8 {
        letter-spacing: -.08em;
      }

      .cls-2, .cls-3, .cls-9 {
        fill: #5732ba;
      }

      .cls-3, .cls-5 {
        stroke-width: 10.03px;
      }

      .cls-6 {
        fill: #5e5a58;
      }
    </style>
  </defs>
  <g id="MLOPS_ICONS" data-name="MLOPS ICONS">
    <g>
      <polygon class="cls-9" points="355.86 442.83 334.17 405.25 338.91 397.03 338.16 395.73 239.99 395.73 212.05 347.35 145.46 347.35 124.78 311.54 75.89 311.54 23.14 220.17 75.89 128.81 156.51 128.81 189.07 72.43 263.33 72.43 270.04 60.8 375.54 60.8 393.15 91.29 446.3 91.29 499.05 182.65 469.89 233.16 493.87 274.69 451.92 347.35 422.57 347.35 430.08 360.36 412.56 390.72 420.95 405.25 399.25 442.83 355.86 442.83"/>
      <path d="m370.06,70.3l17.61,30.49h53.16l47.26,81.87-29.16,50.5,23.98,41.53-36.46,63.16h-40.32l13,22.51-17.53,30.36,8.39,14.53-16.21,28.08h-32.42l-16.21-28.08,4.75-8.22-8.06-13.95-1.82,3.16h-94.53l-27.94-48.39h-66.59l-20.67-35.81h-48.9l-47.26-81.86,47.26-81.87h80.63l32.55-56.38h74.26l6.71-11.63h94.53m10.97-19h-116.47l-5.48,9.5-1.23,2.13h-74.26l-5.48,9.5-27.07,46.88h-80.63l-5.48,9.5-47.26,81.87-5.48,9.5,5.48,9.5,47.26,81.86,5.48,9.5h48.9l15.19,26.31,5.48,9.5h66.59l22.45,38.89,5.48,9.5h88.7v.02s5.47,9.5,5.47,9.5l16.21,28.08,5.48,9.5h54.36l5.48-9.5,16.21-28.08,5.48-9.5-5.48-9.5-2.91-5.03,12.04-20.86,5.48-9.5-2.03-3.51h18.38l5.48-9.5,36.46-63.16,5.48-9.5-5.48-9.5-18.49-32.03,23.67-41,5.48-9.5-5.48-9.5-47.26-81.87-5.48-9.5h-53.16l-12.12-20.99-5.48-9.5h0Z"/>
    </g>
    <polygon class="cls-4" points="393.77 377.18 361.35 377.18 345.13 405.25 361.35 433.33 393.77 433.33 409.98 405.25 393.77 377.18"/>
    <polygon class="cls-1" points="340 222.5 245.47 222.5 198.21 304.37 245.47 386.23 340 386.23 387.27 304.37 340 222.5"/>
    <polygon class="cls-6" points="245.47 174.12 150.94 174.12 103.68 255.98 150.94 337.85 245.47 337.85 292.74 255.98 245.47 174.12"/>
    <polygon class="cls-4" points="175.9 138.31 81.37 138.31 34.11 220.17 81.37 302.04 175.9 302.04 223.17 220.17 175.9 138.31"/>
    <polygon class="cls-2" points="289.08 81.93 194.55 81.93 147.29 163.79 194.55 245.66 289.08 245.66 336.34 163.79 289.08 81.93"/>
    <polygon class="cls-1" points="370.06 70.3 275.53 70.3 228.26 152.16 275.53 234.03 370.06 234.03 417.32 152.16 370.06 70.3"/>
    <polygon class="cls-3" points="386.07 189.24 313.15 189.24 276.68 252.4 313.15 315.56 386.07 315.56 422.54 252.4 386.07 189.24"/>
    <polygon class="cls-6" points="440.82 100.79 346.29 100.79 299.02 182.65 346.29 264.52 440.82 264.52 488.08 182.65 440.82 100.79"/>
    <polygon class="cls-5" points="446.44 211.53 373.51 211.53 337.05 274.69 373.51 337.85 446.44 337.85 482.9 274.69 446.44 211.53"/>
    <polygon class="cls-2" points="396.51 321.22 351.31 321.22 328.71 360.36 351.31 399.51 396.51 399.51 419.12 360.36 396.51 321.22"/>
  </g>
  <g id="TEXT">
    <text class="cls-7" transform="translate(0 -8.09)"><tspan x="0" y="0">SO</tspan><tspan class="cls-8" x="36.57" y="0">L</tspan><tspan x="49.29" y="0">VER</tspan></text>
  </g>
</svg>