<?xml version="1.0" encoding="UTF-8"?>
<svg xmlns="http://www.w3.org/2000/svg" viewBox="0 0 512 512">
  <defs>
    <style>
      .cls-1 {
        fill: #938c86;
      }

      .cls-2 {
        fill: #fff;
        font-family: SourceSansPro-Semibold, 'Source Sans Pro';
        font-size: 30px;
        font-weight: 600;
      }

      .cls-3 {
        letter-spacing: -.03em;
      }

      .cls-4 {
        fill: #7cdee8;
      }

      .cls-5 {
        letter-spacing: 0em;
      }

      .cls-6 {
        letter-spacing: -.05em;
      }
    </style>
  </defs>
  <g id="MLOPS_ICONS" data-name="MLOPS ICONS">
    <g>
      <path class="cls-4" d="m68.38,197.67c-19.08,0-34.6-15.52-34.6-34.6s15.52-34.6,34.6-34.6h158.96c19.08,0,34.6,15.52,34.6,34.6s-15.52,34.6-34.6,34.6H68.38Z"/>
      <path d="m227.34,134.96c15.52,0,28.1,12.58,28.1,28.1h0c0,15.52-12.58,28.1-28.1,28.1H68.38c-15.52,0-28.1-12.58-28.1-28.1h0c0-15.52,12.58-28.1,28.1-28.1h158.96m0-13H68.38c-22.67,0-41.1,18.44-41.1,41.1s18.44,41.1,41.1,41.1h158.96c22.67,0,41.1-18.44,41.1-41.1s-18.44-41.1-41.1-41.1h0Z"/>
    </g>
    <g>
      <path class="cls-1" d="m312.44,197.11c-19.08,0-34.6-15.52-34.6-34.6s15.52-34.6,34.6-34.6h129.88c19.08,0,34.6,15.52,34.6,34.6s-15.52,34.6-34.6,34.6h-129.88Z"/>
      <path d="m442.32,134.4c15.52,0,28.1,12.58,28.1,28.1h0c0,15.52-12.58,28.1-28.1,28.1h-129.88c-15.52,0-28.1-12.58-28.1-28.1h0c0-15.52,12.58-28.1,28.1-28.1h129.88m0-13h-129.88c-22.67,0-41.1,18.44-41.1,41.1s18.44,41.1,41.1,41.1h129.88c22.67,0,41.1-18.44,41.1-41.1s-18.44-41.1-41.1-41.1h0Z"/>
    </g>
    <g>
      <path class="cls-1" d="m68.38,384.59c-19.08,0-34.6-15.52-34.6-34.6s15.52-34.6,34.6-34.6h209.39c19.08,0,34.6,15.52,34.6,34.6s-15.52,34.6-34.6,34.6H68.38Z"/>
      <path d="m277.77,321.88c15.52,0,28.1,12.58,28.1,28.1h0c0,15.52-12.58,28.1-28.1,28.1H68.38c-15.52,0-28.1-12.58-28.1-28.1h0c0-15.52,12.58-28.1,28.1-28.1h209.39m0-13H68.38c-22.67,0-41.1,18.44-41.1,41.1s18.44,41.1,41.1,41.1h209.39c22.67,0,41.1-18.44,41.1-41.1s-18.44-41.1-41.1-41.1h0Z"/>
    </g>
    <g>
      <path class="cls-1" d="m363.41,384.59c-19.08,0-34.6-15.52-34.6-34.6s15.52-34.6,34.6-34.6h78c19.08,0,34.6,15.52,34.6,34.6s-15.52,34.6-34.6,34.6h-78Z"/>
      <path d="m441.41,321.88c15.52,0,28.1,12.58,28.1,28.1h0c0,15.52-12.58,28.1-28.1,28.1h-78c-15.52,0-28.1-12.58-28.1-28.1h0c0-15.52,12.58-28.1,28.1-28.1h78m0-13h-78c-22.67,0-41.1,18.44-41.1,41.1s18.44,41.1,41.1,41.1h78c22.67,0,41.1-18.44,41.1-41.1s-18.44-41.1-41.1-41.1h0Z"/>
    </g>
    <g>
      <path class="cls-1" d="m68.87,291.18c-19.08,0-34.6-15.52-34.6-34.6s15.52-34.6,34.6-34.6h75.18c19.08,0,34.6,15.52,34.6,34.6s-15.52,34.6-34.6,34.6h-75.18Z"/>
      <path d="m144.05,228.47c15.52,0,28.1,12.58,28.1,28.1h0c0,15.52-12.58,28.1-28.1,28.1h-75.18c-15.52,0-28.1-12.58-28.1-28.1h0c0-15.52,12.58-28.1,28.1-28.1h75.18m0-13h-75.18c-22.67,0-41.1,18.44-41.1,41.1s18.44,41.1,41.1,41.1h75.18c22.67,0,41.1-18.44,41.1-41.1s-18.44-41.1-41.1-41.1h0Z"/>
    </g>
    <g>
      <path class="cls-1" d="m232.02,291.18c-19.08,0-34.6-15.52-34.6-34.6s15.52-34.6,34.6-34.6h211.84c19.08,0,34.6,15.52,34.6,34.6s-15.52,34.6-34.6,34.6h-211.84Z"/>
      <path d="m443.86,228.47c15.52,0,28.1,12.58,28.1,28.1h0c0,15.52-12.58,28.1-28.1,28.1h-211.84c-15.52,0-28.1-12.58-28.1-28.1h0c0-15.52,12.58-28.1,28.1-28.1h211.84m0-13h-211.84c-22.67,0-41.1,18.44-41.1,41.1s18.44,41.1,41.1,41.1h211.84c22.67,0,41.1-18.44,41.1-41.1s-18.44-41.1-41.1-41.1h0Z"/>
    </g>
  </g>
  <g id="TEXT">
    <text class="cls-2" transform="translate(0 -7.95)"><tspan x="0" y="0">DE</tspan><tspan class="cls-6" x="34.89" y="0">-</tspan><tspan class="cls-3" x="42.99" y="0">T</tspan><tspan class="cls-5" x="58.59" y="0">OKENIZER</tspan></text>
  </g>
</svg>