<?xml version="1.0" encoding="UTF-8"?>
<svg xmlns="http://www.w3.org/2000/svg" xmlns:xlink="http://www.w3.org/1999/xlink" viewBox="0 0 512 512">
  <defs>
    <style>
      .cls-1 {
        fill: url(#linear-gradient-2);
      }

      .cls-2, .cls-3 {
        fill: #fff;
      }

      .cls-4 {
        fill: #b9e8ea;
      }

      .cls-5 {
        fill: #938c86;
      }

      .cls-3 {
        font-family: SourceSansPro-Semibold, 'Source Sans Pro';
        font-size: 30px;
        font-weight: 600;
      }

      .cls-6 {
        stroke: #000;
        stroke-miterlimit: 10;
        stroke-width: 13px;
      }

      .cls-7 {
        letter-spacing: 0em;
      }

      .cls-8 {
        fill: #5e5a58;
      }

      .cls-9 {
        letter-spacing: -.02em;
      }

      .cls-10 {
        fill: #014759;
      }

      .cls-11 {
        letter-spacing: 0em;
      }

      .cls-12 {
        fill: url(#linear-gradient);
      }
    </style>
    <linearGradient id="linear-gradient" x1="121.6" y1="-31.74" x2="121.6" y2="211.46" gradientUnits="userSpaceOnUse">
      <stop offset=".45" stop-color="#007da4"/>
      <stop offset=".47" stop-color="#0f85a9"/>
      <stop offset=".51" stop-color="#399ab8"/>
      <stop offset=".56" stop-color="#7cbcd0"/>
      <stop offset=".62" stop-color="#d8ebf1"/>
      <stop offset=".65" stop-color="#fff"/>
    </linearGradient>
    <symbol id="Image" viewBox="0 0 243.24 168.89">
      <g>
        <rect class="cls-12" y="0" width="243.2" height="168.89"/>
        <path class="cls-5" d="m0,133.52l41.79-15.63s57.9-34.72,60.44-35.99,30.98-4.32,30.98-4.32l60.19,35.81,45.21,39.63,4.63,15.73H.04L0,133.52Z"/>
        <path class="cls-4" d="m138.4,61.04h-8l-20.86,4.37s-19.81,17.19-32,25.95c-11.3,8.12-57.91,32.59-64.69,36.14L0,133.52l.07,9.94c7.19-2.94,30.92-14.58,34.04-15.62,4.57-1.52,7.97,1.99,14.5-1.52,7.69-4.14,10.32-5.16,16.04-8.43s22.41-7.48,17.58,2.43c-2.92,5.99-6.79,14.28,1.97,7.8,2.94-2.17,8.6-5.97,12.44-8.63,3.84-2.67,9.85-1.47,10.23,6.15.38,7.62.76,10.29,4.19,12.57,3.43,2.29,5.71,17.14,6.48,8.38.76-8.76-.93-24.38,4.11-31.62,5.04-7.24,7.32-11.43,9.61-12.95,2.29-1.52,5.33,8,8.76,14.48,3.43,6.48,6.39,8.83,8.15,3.85,1.76-4.99-.91-18.4,3.28-11.51,4.19,6.9,6.86,12.99,16,21.37,9.14,8.38,24,21.33,20.57,13.33-3.43-8-6.1-16-8.38-21.33-2.29-5.33-7.38-14.1-3.12-9.9,4.26,4.19,13.02,14.1,23.69,21.33,8.57,5.81,26.95,17.27,35.05,19.39v-27.01s-45.02-25.35-54.54-31.49c-9.52-6.14-42.31-33.5-42.31-33.5Z"/>
        <path class="cls-8" d="m98.17,132.4l6.89-21.54s7.77-30.22,10.31-31.49,30.98-4.32,30.98-4.32l60.19,35.81,36.7,30.6v27.3H55.12l43.05-36.36Z"/>
        <path class="cls-10" d="m137.79,118.48c6.01,4.2,11.86,11.08,13.62,6.1,1.76-4.99,7.31-2.36,16.45,6.03,9.14,8.38,25.15,19.14,21.17,11.4-3.43-6.67-9.33-16.85,14-7.04,9.54,4.02,15.78-7.98,40.22,7.77v-13.21s-52.56-29.4-62.09-35.54c-7.58-4.88-38.94-29.87-38.94-29.87l-27.92,13.48-11.51,41.01s9.89,11.36,17.28,6.55c6-3.91,11.71-10.86,17.71-6.67Z"/>
        <path class="cls-2" d="m235.2,8v152.76H8V8h227.2m8-8H0v168.76h243.2V0h0Z"/>
      </g>
    </symbol>
    <linearGradient id="linear-gradient-2" x1="256.3" y1="69.55" x2="256.3" y2="452.78" xlink:href="#linear-gradient"/>
  </defs>
  <g id="MLOPS_ICONS" data-name="MLOPS ICONS">
    <path d="m447.91,119.57v265.93H64.69V119.57h383.22m52-52H12.69v369.93h487.22V67.57h0Z"/>
    <g>
      <use width="243.24" height="168.89" transform="translate(64.69 119.57) scale(1.58)" xlink:href="#Image"/>
      <path class="cls-5" d="m447.91,119.57v265.93H64.69V119.57h383.22m43-43H21.69v351.93h469.22V76.57h0Z"/>
    </g>
    <g>
      <g>
        <rect class="cls-1" x="64.69" y="119.57" width="383.22" height="266.13"/>
        <path class="cls-5" d="m64.69,329.97l65.85-24.62s91.24-54.71,95.25-56.71c4-2,48.82-6.8,48.82-6.8l94.85,56.43,71.23,62.45,7.3,24.79H64.76l-.07-55.53Z"/>
        <path class="cls-2" d="m282.76,215.76h-12.61l-32.87,6.88s-31.21,27.09-50.42,40.89c-17.8,12.79-91.25,51.35-101.94,56.94l-20.24,9.5.11,15.67c11.33-4.63,48.72-22.97,53.63-24.61,7.2-2.4,12.56,3.13,22.85-2.4,12.12-6.52,16.26-8.13,25.27-13.28,9-5.15,35.31-11.78,27.71,3.82-4.6,9.44-10.7,22.5,3.11,12.3,4.64-3.43,13.55-9.4,19.61-13.61,6.06-4.2,15.52-2.31,16.12,9.7.6,12.01,1.2,16.21,6.6,19.81,5.4,3.6,9,27.01,10.2,13.21,1.2-13.81-1.47-38.42,6.47-49.82,7.94-11.41,11.54-18.01,15.14-20.41,3.6-2.4,8.4,12.61,13.81,22.81,5.4,10.2,10.07,13.92,12.84,6.06,2.77-7.86-1.43-29,5.17-18.13,6.6,10.87,10.81,20.47,25.21,33.68,14.41,13.21,37.82,33.62,32.42,21.01-5.4-12.61-9.6-25.21-13.21-33.62-3.6-8.4-11.62-22.21-4.91-15.61,6.71,6.6,20.52,22.21,37.33,33.62,13.5,9.16,42.47,27.21,55.23,30.55v-42.55s-70.94-39.95-85.95-49.61c-15.01-9.67-66.67-52.79-66.67-52.79Z"/>
        <path class="cls-8" d="m219.38,328.2l10.86-33.95s12.24-47.62,16.24-49.62c4-2,48.82-6.8,48.82-6.8l94.85,56.43,57.83,48.22v43.02H151.54l67.84-57.3Z"/>
        <path class="cls-10" d="m281.81,306.26c9.47,6.61,18.69,17.47,21.46,9.6,2.77-7.86,11.52-3.71,25.93,9.49,14.41,13.21,39.62,30.17,33.35,17.97-5.4-10.51-14.71-26.56,22.05-11.09,15.04,6.33,24.87-12.58,63.38,12.24v-20.81s-82.83-46.33-97.83-56c-11.94-7.69-61.35-47.07-61.35-47.07l-43.99,21.23-18.14,64.63s15.59,17.9,27.23,10.31c9.45-6.16,18.46-17.12,27.91-10.51Z"/>
        <path class="cls-2" d="m435.3,132.18v240.71H77.29v-240.71h358.01m12.61-12.61H64.69v265.93h383.22V119.57h0Z"/>
      </g>
      <path d="m447.91,119.57v265.93H64.69V119.57h383.22m12.61-12.61H52.08v291.14h408.43V106.97h0Z"/>
    </g>
    <line class="cls-6" x1="64.69" y1="119.57" x2="18.57" y2="73.46"/>
    <line class="cls-6" x1="57.86" y1="391" x2="19.38" y2="429.48"/>
    <line class="cls-6" x1="455.57" y1="113.29" x2="494.43" y2="74.43"/>
    <line class="cls-6" x1="455.57" y1="392.9" x2="495.19" y2="432.52"/>
  </g>
  <g id="TEXT">
    <text class="cls-3" transform="translate(0 -7.95)"><tspan x="0" y="0">EXPO</tspan><tspan class="cls-9" x="70.05" y="0">R</tspan><tspan class="cls-7" x="87.33" y="0">T IM</tspan><tspan class="cls-11" x="140.52" y="0">A</tspan><tspan x="156.96" y="0">GE</tspan></text>
  </g>
</svg>