<?xml version="1.0" encoding="UTF-8"?>
<svg xmlns="http://www.w3.org/2000/svg" viewBox="0 0 512 512">
  <defs>
    <style>
      .cls-1, .cls-2 {
        fill: #fff;
      }

      .cls-2 {
        font-family: SourceSansPro-Semibold, 'Source Sans Pro';
        font-size: 30px;
        font-weight: 600;
      }

      .cls-3 {
        letter-spacing: 0em;
      }

      .cls-4 {
        letter-spacing: -.06em;
      }

      .cls-5 {
        letter-spacing: 0em;
      }

      .cls-6 {
        letter-spacing: -.04em;
      }
    </style>
  </defs>
  <g id="MLOPS_ICONS" data-name="MLOPS ICONS">
    <circle cx="393.87" cy="301.45" r="27.22"/>
    <circle cx="450.29" cy="301.45" r="27.22"/>
    <circle cx="393.87" cy="361.42" r="27.22"/>
    <circle cx="450.29" cy="361.42" r="27.22"/>
    <g>
      <rect x="26.68" y="129.47" width="103.66" height="103.66"/>
      <path d="m124.85,134.96v92.69H32.17v-92.69h92.69m10.97-10.97H21.2v114.62h114.62v-114.62h0Z"/>
    </g>
    <g>
      <rect x="255.53" y="129.47" width="103.66" height="103.66"/>
      <path d="m353.7,134.96v92.69h-92.69v-92.69h92.69m10.97-10.97h-114.62v114.62h114.62v-114.62h0Z"/>
    </g>
    <g>
      <rect x="255.53" y="279.92" width="103.66" height="103.66"/>
      <path d="m353.7,285.4v92.69h-92.69v-92.69h92.69m10.97-10.97h-114.62v114.62h114.62v-114.62h0Z"/>
    </g>
    <g>
      <path class="cls-1" d="m417.58,243.74c-31.66,0-57.41-25.76-57.41-57.41s25.76-57.41,57.41-57.41,57.41,25.76,57.41,57.41-25.76,57.41-57.41,57.41Z"/>
      <path d="m417.58,134.4c28.68,0,51.93,23.25,51.93,51.93s-23.25,51.93-51.93,51.93-51.93-23.25-51.93-51.93,23.25-51.93,51.93-51.93m0-10.97c-34.68,0-62.9,28.22-62.9,62.9s28.22,62.9,62.9,62.9,62.9-28.22,62.9-62.9-28.22-62.9-62.9-62.9h0Z"/>
    </g>
    <g>
      <g>
        <path class="cls-1" d="m84.1,383.58c-31.66,0-57.41-25.76-57.41-57.41s25.76-57.41,57.41-57.41,57.41,25.76,57.41,57.41-25.76,57.41-57.41,57.41Z"/>
        <path d="m84.1,274.23c28.68,0,51.93,23.25,51.93,51.93s-23.25,51.93-51.93,51.93-51.93-23.25-51.93-51.93,23.25-51.93,51.93-51.93m0-10.97c-34.68,0-62.9,28.22-62.9,62.9s28.22,62.9,62.9,62.9,62.9-28.22,62.9-62.9-28.22-62.9-62.9-62.9h0Z"/>
      </g>
      <g>
        <path class="cls-1" d="m197.45,383.58c-31.66,0-57.41-25.76-57.41-57.41s25.76-57.41,57.41-57.41,57.41,25.76,57.41,57.41-25.76,57.41-57.41,57.41Z"/>
        <path d="m197.45,274.23c28.68,0,51.93,23.25,51.93,51.93s-23.25,51.93-51.93,51.93-51.93-23.25-51.93-51.93,23.25-51.93,51.93-51.93m0-10.97c-34.68,0-62.9,28.22-62.9,62.9s28.22,62.9,62.9,62.9,62.9-28.22,62.9-62.9-28.22-62.9-62.9-62.9h0Z"/>
      </g>
    </g>
    <g>
      <path class="cls-1" d="m197.45,243.17c-31.66,0-57.41-25.76-57.41-57.41s25.76-57.41,57.41-57.41,57.41,25.76,57.41,57.41-25.76,57.41-57.41,57.41Z"/>
      <path d="m197.45,133.83c28.68,0,51.93,23.25,51.93,51.93s-23.25,51.93-51.93,51.93-51.93-23.25-51.93-51.93,23.25-51.93,51.93-51.93m0-10.97c-34.68,0-62.9,28.22-62.9,62.9s28.22,62.9,62.9,62.9,62.9-28.22,62.9-62.9-28.22-62.9-62.9-62.9h0Z"/>
    </g>
  </g>
  <g id="TEXT">
    <text class="cls-2" transform="translate(0 -8.58)"><tspan class="cls-5" x="0" y="0">D</tspan><tspan class="cls-4" x="18.45" y="0">A</tspan><tspan class="cls-6" x="33.27" y="0">T</tspan><tspan x="48.45" y="0">ASET CRE</tspan><tspan class="cls-4" x="171.24" y="0">A</tspan><tspan class="cls-3" x="186.06" y="0">TE</tspan></text>
  </g>
</svg>