<?xml version="1.0" encoding="UTF-8"?>
<svg xmlns="http://www.w3.org/2000/svg" xmlns:xlink="http://www.w3.org/1999/xlink" viewBox="0 0 512 512">
  <defs>
    <style>
      .cls-1, .cls-2 {
        fill: #fff;
      }

      .cls-3 {
        letter-spacing: 0em;
      }

      .cls-4 {
        fill: #fe3da6;
      }

      .cls-5 {
        fill: #938c86;
      }

      .cls-2 {
        font-family: SourceSansPro-Semibold, 'Source Sans Pro';
        font-size: 30px;
        font-weight: 600;
      }

      .cls-6 {
        fill: #5e5a58;
      }

      .cls-7 {
        fill: #014759;
      }

      .cls-8 {
        fill: url(#linear-gradient);
      }
    </style>
    <linearGradient id="linear-gradient" x1="255.29" y1="122.02" x2="255.29" y2="402.89" gradientUnits="userSpaceOnUse">
      <stop offset=".45" stop-color="#007da4"/>
      <stop offset=".47" stop-color="#0f85a9"/>
      <stop offset=".51" stop-color="#399ab8"/>
      <stop offset=".56" stop-color="#7cbcd0"/>
      <stop offset=".62" stop-color="#d8ebf1"/>
      <stop offset=".65" stop-color="#fff"/>
    </linearGradient>
  </defs>
  <g id="MLOPS_ICONS" data-name="MLOPS ICONS">
    <g>
      <g>
        <path class="cls-4" d="m96.48,150.62c-6.81,0-13.21-2.65-18.03-7.47l-35.05-35.05c-4.82-4.82-7.47-11.22-7.47-18.03s2.65-13.22,7.47-18.03c4.82-4.82,11.22-7.47,18.03-7.47s13.21,2.65,18.03,7.47l35.05,35.05c4.82,4.82,7.47,11.22,7.47,18.03s-2.65,13.22-7.47,18.03c-4.82,4.82-11.22,7.47-18.03,7.47Z"/>
        <path d="m61.43,71.07c4.86,0,9.72,1.85,13.43,5.56l35.05,35.05c7.42,7.42,7.42,19.45,0,26.87-3.71,3.71-8.57,5.56-13.43,5.56s-9.72-1.85-13.43-5.56l-35.05-35.05c-7.42-7.42-7.42-19.45,0-26.87,3.71-3.71,8.57-5.56,13.43-5.56m0-13c-8.55,0-16.58,3.33-22.63,9.37-6.04,6.04-9.37,14.08-9.37,22.63s3.33,16.58,9.37,22.63l35.05,35.05c6.04,6.04,14.08,9.37,22.63,9.37s16.58-3.33,22.63-9.37c6.04-6.04,9.37-14.08,9.37-22.63s-3.33-16.58-9.37-22.63l-35.05-35.05c-6.04-6.04-14.08-9.37-22.63-9.37h0Z"/>
      </g>
      <g>
        <path class="cls-4" d="m415.94,150.62c-6.81,0-13.21-2.65-18.03-7.47-4.82-4.82-7.47-11.22-7.47-18.03s2.65-13.22,7.47-18.03l35.05-35.05c4.82-4.82,11.22-7.47,18.03-7.47s13.21,2.65,18.03,7.47c4.82,4.82,7.47,11.22,7.47,18.03s-2.65,13.22-7.47,18.03l-35.05,35.05c-4.82,4.82-11.22,7.47-18.03,7.47Z"/>
        <path d="m450.99,71.07c4.86,0,9.72,1.85,13.43,5.56,7.42,7.42,7.42,19.45,0,26.87l-35.05,35.05c-3.71,3.71-8.57,5.56-13.43,5.56s-9.72-1.85-13.43-5.56c-7.42-7.42-7.42-19.45,0-26.87l35.05-35.05c3.71-3.71,8.57-5.56,13.43-5.56m0-13c-8.55,0-16.58,3.33-22.63,9.37l-35.05,35.05c-6.04,6.04-9.37,14.08-9.37,22.63s3.33,16.58,9.37,22.63c6.04,6.04,14.08,9.37,22.63,9.37s16.58-3.33,22.63-9.37l35.05-35.05c6.04-6.04,9.37-14.08,9.37-22.63s-3.33-16.58-9.37-22.63c-6.04-6.04-14.08-9.37-22.63-9.37h0Z"/>
      </g>
    </g>
    <g>
      <g>
        <path class="cls-4" d="m450.99,447.2c-6.81,0-13.21-2.65-18.03-7.47l-35.05-35.05c-9.94-9.94-9.94-26.12,0-36.06,4.82-4.82,11.22-7.47,18.03-7.47s13.21,2.65,18.03,7.47l35.05,35.05c4.82,4.82,7.47,11.22,7.47,18.03s-2.65,13.22-7.47,18.03c-4.82,4.82-11.22,7.47-18.03,7.47Z"/>
        <path d="m415.94,367.65c4.86,0,9.73,1.85,13.44,5.56l35.05,35.05c7.42,7.42,7.42,19.45,0,26.87-3.71,3.71-8.57,5.56-13.44,5.56s-9.72-1.85-13.43-5.56l-35.05-35.05c-7.42-7.42-7.42-19.45,0-26.87,3.71-3.71,8.57-5.56,13.44-5.56m0-13c-8.55,0-16.58,3.33-22.63,9.37-12.48,12.48-12.48,32.78,0,45.25l35.05,35.05c6.04,6.04,14.08,9.37,22.63,9.37s16.58-3.33,22.63-9.37c12.48-12.48,12.48-32.78,0-45.25l-35.05-35.05c-6.04-6.04-14.08-9.37-22.63-9.37h0Z"/>
      </g>
      <g>
        <path class="cls-4" d="m61.43,447.2c-6.81,0-13.21-2.65-18.03-7.47-4.82-4.82-7.47-11.22-7.47-18.03s2.65-13.21,7.47-18.03l35.05-35.05c4.81-4.82,11.22-7.47,18.03-7.47s13.21,2.65,18.03,7.47c9.94,9.94,9.94,26.12,0,36.06l-35.05,35.05c-4.82,4.82-11.22,7.47-18.03,7.47Z"/>
        <path d="m96.47,367.65c4.86,0,9.73,1.86,13.44,5.57,7.42,7.42,7.42,19.45,0,26.87l-35.05,35.05c-3.71,3.71-8.57,5.56-13.43,5.56s-9.72-1.85-13.44-5.56c-7.42-7.42-7.42-19.45,0-26.87l35.05-35.05c3.71-3.71,8.57-5.57,13.43-5.57m0-13c-8.55,0-16.58,3.33-22.63,9.37l-35.05,35.05c-12.48,12.48-12.48,32.78,0,45.25,6.04,6.04,14.08,9.37,22.63,9.37s16.58-3.33,22.63-9.37l35.05-35.05c12.48-12.48,12.48-32.78,0-45.25-6.05-6.04-14.08-9.37-22.63-9.37h0Z"/>
      </g>
    </g>
    <path d="m395.72,158.68v195.05H114.86v-195.05h280.86m8.5-8.5H106.36v212.05h297.86v-212.05h0Z"/>
    <g>
      <rect class="cls-8" x="114.86" y="158.68" width="280.86" height="195.05"/>
      <path class="cls-5" d="m114.86,312.88l48.26-18.05s66.87-40.1,69.81-41.57,35.78-4.99,35.78-4.99l69.51,41.36,52.21,45.77,5.35,18.17H114.91l-.05-40.7Z"/>
      <path class="cls-1" d="m274.69,229.17h-9.24l-24.09,5.04s-22.88,19.85-36.96,29.97c-13.05,9.38-66.88,37.64-74.71,41.73l-14.84,6.96.08,11.48c8.3-3.39,35.71-16.84,39.31-18.04,5.28-1.76,9.21,2.3,16.74-1.76,8.88-4.78,11.92-5.96,18.52-9.73,6.6-3.77,25.88-8.64,20.31,2.8-3.37,6.92-7.84,16.49,2.28,9.01,3.4-2.51,9.93-6.89,14.37-9.97,4.44-3.08,11.37-1.69,11.81,7.11.44,8.8.88,11.88,4.84,14.52,3.96,2.64,6.6,19.8,7.48,9.68.88-10.12-1.07-28.16,4.74-36.52,5.82-8.36,8.46-13.2,11.1-14.96,2.64-1.76,6.16,9.24,10.12,16.72,3.96,7.48,7.38,10.2,9.41,4.44,2.03-5.76-1.05-21.25,3.79-13.29,4.84,7.97,7.92,15.01,18.48,24.68,10.56,9.68,27.72,24.64,23.76,15.4-3.96-9.24-7.04-18.48-9.68-24.64-2.64-6.16-8.52-16.28-3.6-11.44,4.92,4.84,15.04,16.28,27.36,24.64,9.89,6.71,31.13,19.94,40.48,22.39v-31.19s-51.99-29.28-62.99-36.36c-11-7.09-48.87-38.69-48.87-38.69Z"/>
      <path class="cls-6" d="m228.23,311.59l7.96-24.88s8.97-34.9,11.9-36.37c2.93-1.47,35.78-4.99,35.78-4.99l69.51,41.36,42.39,35.34v31.53h-217.26l49.72-41.99Z"/>
      <path class="cls-7" d="m273.98,295.51c6.94,4.85,13.7,12.8,15.73,7.04,2.03-5.76,8.44-2.72,19,6.96,10.56,9.68,29.04,22.11,24.44,13.17-3.96-7.7-10.78-19.46,16.16-8.12,11.02,4.64,18.23-9.22,46.45,8.97v-15.25s-60.7-33.96-71.7-41.04c-8.75-5.64-44.97-34.5-44.97-34.5l-32.24,15.56-13.29,47.37s11.43,13.12,19.96,7.56c6.93-4.51,13.53-12.54,20.46-7.7Z"/>
      <path class="cls-1" d="m386.48,167.92v176.42H124.1v-176.42h262.39m9.24-9.24H114.86v194.9h280.86v-194.9h0Z"/>
    </g>
  </g>
  <g id="TEXT">
    <text class="cls-2" transform="translate(0 -7.95)"><tspan x="0" y="0">IM</tspan><tspan class="cls-3" x="30.81" y="0">A</tspan><tspan x="47.25" y="0">GE RESIZE</tspan></text>
  </g>
</svg>