<?xml version="1.0" encoding="UTF-8"?>
<svg xmlns="http://www.w3.org/2000/svg" viewBox="0 0 512 512">
  <defs>
    <style>
      .cls-1 {
        fill: #ffbc00;
      }

      .cls-1, .cls-2, .cls-3, .cls-4 {
        stroke: #020202;
        stroke-miterlimit: 10;
        stroke-width: 10px;
      }

      .cls-2 {
        fill: #5732ba;
      }

      .cls-5 {
        fill: #fff;
        font-family: SourceSansPro-Semibold, 'Source Sans Pro';
        font-size: 30px;
        font-weight: 600;
      }

      .cls-3 {
        fill: #7cdee8;
      }

      .cls-4 {
        fill: #fe3da6;
      }
    </style>
  </defs>
  <g id="MLOPS_ICONS" data-name="MLOPS ICONS">
    <path class="cls-2" d="m213.7,350.66c-11.96,0-23.03-7.72-26.75-19.75-9.98-32.34-15.04-65.48-15.04-98.5V64.16c0-15.46,12.54-28,28-28s28,12.54,28,28v168.25c0,27.41,4.22,55,12.55,81.98,4.56,14.78-3.72,30.45-18.5,35.01-2.75.85-5.53,1.25-8.27,1.25Z"/>
    <path class="cls-1" d="m144.62,260.41c-15.46,0-28-12.54-28-28V64.16c0-15.46,12.54-28,28-28s28,12.54,28,28v168.25c0,15.46-12.54,28-28,28Z"/>
    <path d="m312.76,36.16c15.46,0,28,12.54,28,28v168.25c0,41.27,10.49,80.46,30.33,113.33,16.34,27.05,38.63,48.8,61.17,59.66,3.85,1.86,7.9,3.67,12.03,5.38,14.29,5.92,21.07,22.3,15.15,36.59-4.47,10.78-14.89,17.29-25.88,17.29-3.57,0-7.2-.69-10.71-2.14-5.09-2.11-10.11-4.35-14.9-6.66-30.44-14.67-58.75-40.83-80.4-74.13,1.27,1.99,2.56,3.96,3.88,5.91,8.69,12.79,5.38,30.2-7.41,38.9-4.82,3.28-10.3,4.85-15.72,4.85-8.96,0-17.76-4.29-23.18-12.26-19.24-28.3-33.95-59.9-43.63-93.07-1.3,10.62-8.65,20.01-19.54,23.37-2.75.85-5.53,1.25-8.27,1.25-11.96,0-23.03-7.72-26.75-19.75-9.37-30.37-14.41-61.45-14.98-92.47-2.76,12.56-13.95,21.97-27.34,21.97-15.46,0-28-12.54-28-28V64.16c0-15.46,12.54-28,28-28,13.94,0,25.5,10.2,27.64,23.54,2.14-13.34,13.7-23.54,27.64-23.54,15.46,0,28,12.54,28,28v168.25c0,5.62.19,11.25.54,16.88-.29-5.62-.45-11.25-.45-16.88V64.16c0-15.46,12.54-28,28-28s28,12.54,28,28v168.25c0,25.8,3.91,52.11,11.24,77.38-6.92-24.69-10.49-50.73-10.49-77.38V64.16c0-15.46,12.54-28,28-28m0-13c-11,0-21.01,4.36-28.38,11.43-7.37-7.08-17.37-11.43-28.38-11.43s-20.71,4.23-28.05,11.12c-7.34-6.89-17.21-11.12-28.05-11.12-9.81,0-19.3,3.52-26.73,9.91-.31.27-.61.54-.91.81-.3-.27-.61-.54-.91-.81-7.43-6.39-16.92-9.91-26.73-9.91-22.61,0-41,18.39-41,41v168.25c0,22.61,18.39,41,41,41,5.66,0,11.24-1.18,16.38-3.42,2.43,21.77,6.95,43.44,13.52,64.75,2.64,8.54,7.84,15.83,15.06,21.07,7.07,5.13,15.4,7.85,24.11,7.85,4.09,0,8.16-.62,12.1-1.83,4.36-1.35,8.39-3.39,11.97-5.99,9.5,25.09,21.76,48.74,36.61,70.58,7.64,11.24,20.33,17.95,33.93,17.95,8.24,0,16.2-2.45,23.03-7.1,5.27-3.58,9.54-8.23,12.6-13.61,17.68,18.82,37.63,33.9,58.38,43.9,5.01,2.41,10.24,4.75,15.57,6.96,5.02,2.08,10.3,3.13,15.69,3.13,16.64,0,31.52-9.94,37.89-25.31,8.65-20.88-1.29-44.92-22.18-53.57-3.91-1.62-7.73-3.33-11.37-5.08-20.32-9.79-40.62-29.72-55.69-54.67-18.62-30.84-28.46-67.7-28.46-106.61V64.16c0-22.61-18.39-41-41-41h0Z"/>
    <path class="cls-3" d="m308.31,431.37c-8.96,0-17.76-4.29-23.18-12.26-36.84-54.18-57.13-120.49-57.13-186.7V64.16c0-15.46,12.54-28,28-28s28,12.54,28,28v168.25c0,54.3,17.29,110.87,47.44,155.21,8.69,12.79,5.38,30.2-7.41,38.9-4.82,3.28-10.3,4.85-15.72,4.85Z"/>
    <path class="cls-4" d="m433.56,464.65c-3.57,0-7.2-.69-10.71-2.14-5.09-2.11-10.11-4.35-14.9-6.66-32.55-15.69-62.67-44.51-84.8-81.16-25.12-41.6-38.4-90.8-38.4-142.27V64.16c0-15.46,12.54-28,28-28s28,12.54,28,28v168.25c0,41.27,10.49,80.46,30.33,113.33,16.34,27.05,38.63,48.8,61.17,59.66,3.85,1.86,7.9,3.67,12.03,5.38,14.29,5.92,21.07,22.3,15.15,36.59-4.47,10.78-14.89,17.29-25.88,17.29Z"/>
  </g>
  <g id="TEXT">
    <text class="cls-5" transform="translate(0 -8.09)"><tspan x="0" y="0">SCHEDULER</tspan></text>
  </g>
</svg>