<?xml version="1.0" encoding="UTF-8"?>
<svg id="MLOPS_ICONS" data-name="MLOPS ICONS" xmlns="http://www.w3.org/2000/svg" viewBox="0 0 512 512">
  <defs>
    <style>
      .cls-1 {
        fill: #938c86;
      }

      .cls-2 {
        fill: #7cdee8;
      }

      .cls-3 {
        fill: #ffbc00;
      }

      .cls-4 {
        fill: #5732ba;
      }
    </style>
  </defs>
  <g>
    <path class="cls-4" d="m36.53,482.78c-2.75,0-5.19-1.72-6.12-4.31-.92-2.58-.13-5.47,2-7.21l120-98.53c1.16-.96,2.62-1.48,4.12-1.48h330.95c2.75,0,5.19,1.72,6.12,4.31.92,2.58.13,5.47-2,7.21l-120,98.53c-1.16.96-2.62,1.48-4.12,1.48H36.53Z"/>
    <path d="m487.47,377.75l-120,98.53H36.53l120-98.53h330.95m0-13H156.53c-3.01,0-5.92,1.04-8.25,2.95l-120,98.53c-4.24,3.48-5.84,9.26-3.99,14.43,1.85,5.17,6.75,8.62,12.24,8.62h330.95c3.01,0,5.92-1.04,8.25-2.95l120-98.53c4.24-3.48,5.84-9.26,3.99-14.43s-6.75-8.62-12.24-8.62h0Zm0,26h0,0Z"/>
  </g>
  <g>
    <path class="cls-4" d="m36.53,469.77c-2.75,0-5.19-1.72-6.12-4.31-.92-2.58-.13-5.47,2-7.21l120-98.53c1.16-.96,2.62-1.48,4.12-1.48h330.95c2.75,0,5.19,1.72,6.12,4.31.92,2.58.13,5.47-2,7.21l-120,98.53c-1.16.96-2.62,1.48-4.12,1.48H36.53Z"/>
    <path d="m487.47,364.74l-120,98.53H36.53l120-98.53h330.95m0-13H156.53c-3.01,0-5.92,1.04-8.25,2.95l-120,98.53c-4.24,3.48-5.84,9.26-3.99,14.43,1.85,5.17,6.75,8.62,12.24,8.62h330.95c3.01,0,5.92-1.04,8.25-2.95l120-98.53c4.24-3.48,5.84-9.26,3.99-14.43s-6.75-8.62-12.24-8.62h0Zm0,26h0,0Z"/>
  </g>
  <g>
    <path class="cls-4" d="m36.53,456.75c-2.75,0-5.19-1.72-6.12-4.31-.92-2.58-.13-5.47,2-7.21l120-98.53c1.16-.96,2.62-1.48,4.12-1.48h330.95c2.75,0,5.19,1.72,6.12,4.31.92,2.58.13,5.47-2,7.21l-120,98.53c-1.16.96-2.62,1.48-4.12,1.48H36.53Z"/>
    <path d="m487.47,351.72l-120,98.53H36.53l120-98.53h330.95m0-13H156.53c-3.01,0-5.92,1.04-8.25,2.95l-120,98.53c-4.24,3.48-5.84,9.26-3.99,14.43,1.85,5.17,6.75,8.62,12.24,8.62h330.95c3.01,0,5.92-1.04,8.25-2.95l120-98.53c4.24-3.48,5.84-9.26,3.99-14.43s-6.75-8.62-12.24-8.62h0Zm0,26h0,0Z"/>
  </g>
  <g>
    <path class="cls-2" d="m36.53,384.42c-2.75,0-5.19-1.72-6.12-4.31-.92-2.58-.13-5.47,2-7.21l120-98.53c1.16-.96,2.62-1.48,4.12-1.48h330.95c2.75,0,5.19,1.72,6.12,4.31.92,2.58.13,5.47-2,7.21l-120,98.53c-1.16.96-2.62,1.48-4.12,1.48H36.53Z"/>
    <path d="m487.47,279.39l-120,98.53H36.53l120-98.53h330.95m0-13H156.53c-3.01,0-5.92,1.04-8.25,2.95l-120,98.53c-4.24,3.48-5.84,9.26-3.99,14.43,1.85,5.17,6.75,8.62,12.24,8.62h330.95c3.01,0,5.92-1.04,8.25-2.95l120-98.53c4.24-3.48,5.84-9.26,3.99-14.43s-6.75-8.62-12.24-8.62h0Zm0,26h0,0Z"/>
  </g>
  <g>
    <path class="cls-3" d="m36.53,300.23c-2.75,0-5.19-1.72-6.12-4.31-.92-2.58-.13-5.47,2-7.21l120-98.53c1.16-.96,2.62-1.48,4.12-1.48h330.95c2.75,0,5.19,1.72,6.12,4.31.92,2.58.13,5.47-2,7.21l-120,98.53c-1.16.96-2.62,1.48-4.12,1.48H36.53Z"/>
    <path d="m487.47,195.2l-120,98.53H36.53l120-98.53h330.95m0-13H156.53c-3.01,0-5.92,1.04-8.25,2.95l-120,98.53c-4.24,3.48-5.84,9.26-3.99,14.43,1.85,5.17,6.75,8.62,12.24,8.62h330.95c3.01,0,5.92-1.04,8.25-2.95l120-98.53c4.24-3.48,5.84-9.26,3.99-14.43s-6.75-8.62-12.24-8.62h0Zm0,26h0,0Z"/>
  </g>
  <g>
    <path class="cls-1" d="m36.53,159.49c-2.75,0-5.19-1.72-6.12-4.31-.92-2.58-.13-5.47,2-7.21l120-98.53c1.16-.96,2.62-1.48,4.12-1.48h330.95c2.75,0,5.19,1.72,6.12,4.31.92,2.58.13,5.47-2,7.21l-120,98.53c-1.16.96-2.62,1.48-4.12,1.48H36.53Z"/>
    <path d="m487.47,54.46l-120,98.53H36.53l120-98.53h330.95m0-13H156.53c-3.01,0-5.92,1.04-8.25,2.95L28.28,142.94c-4.24,3.48-5.84,9.26-3.99,14.43,1.85,5.17,6.75,8.62,12.24,8.62h330.95c3.01,0,5.92-1.04,8.25-2.95l120-98.53c4.24-3.48,5.84-9.26,3.99-14.43-1.85-5.17-6.75-8.62-12.24-8.62h0Zm0,26h0,0Z"/>
  </g>
</svg>