<?xml version="1.0" encoding="UTF-8"?>
<svg xmlns="http://www.w3.org/2000/svg" xmlns:xlink="http://www.w3.org/1999/xlink" viewBox="0 0 512 512">
  <defs>
    <style>
      .cls-1, .cls-2 {
        fill: #fff;
      }

      .cls-3 {
        letter-spacing: 0em;
      }

      .cls-4 {
        fill: #007da4;
      }

      .cls-5 {
        fill: #b9e8ea;
      }

      .cls-6 {
        fill: #938c86;
      }

      .cls-2 {
        font-family: SourceSansPro-Semibold, 'Source Sans Pro';
        font-size: 30px;
        font-weight: 600;
      }

      .cls-7 {
        letter-spacing: -.03em;
      }

      .cls-8 {
        fill: #5e5a58;
      }

      .cls-9 {
        fill: #014759;
      }

      .cls-10 {
        letter-spacing: -.03em;
      }

      .cls-11 {
        fill: url(#linear-gradient);
      }
    </style>
    <linearGradient id="linear-gradient" x1="255.93" y1="50.67" x2="255.93" y2="480.21" gradientUnits="userSpaceOnUse">
      <stop offset=".45" stop-color="#007da4"/>
      <stop offset=".47" stop-color="#0f85a9"/>
      <stop offset=".51" stop-color="#399ab8"/>
      <stop offset=".56" stop-color="#7cbcd0"/>
      <stop offset=".62" stop-color="#d8ebf1"/>
      <stop offset=".65" stop-color="#fff"/>
    </linearGradient>
  </defs>
  <g id="MLOPS_ICONS" data-name="MLOPS ICONS">
    <g>
      <rect class="cls-11" x="41.17" y="106.74" width="429.54" height="298.3"/>
      <path class="cls-6" d="m41.17,342.57l73.8-27.6s102.27-61.33,106.76-63.57,54.72-7.63,54.72-7.63l106.31,63.25,79.84,70,8.18,27.78H41.24l-.08-62.24Z"/>
      <path class="cls-1" d="m285.6,214.55h-14.13l-36.84,7.71s-34.99,30.36-56.52,45.84c-19.95,14.34-102.28,57.56-114.26,63.82l-22.69,10.65.13,17.56c12.7-5.19,54.61-25.75,60.12-27.59,8.07-2.69,14.08,3.51,25.61-2.69,13.59-7.31,18.23-9.11,28.32-14.88,10.09-5.77,39.58-13.21,31.06,4.28-5.15,10.58-11.99,25.22,3.48,13.78,5.2-3.84,15.19-10.54,21.98-15.25,6.79-4.71,17.39-2.59,18.06,10.87.67,13.46,1.35,18.17,7.4,22.2,6.06,4.04,10.09,30.28,11.44,14.8,1.35-15.48-1.64-43.06,7.25-55.85,8.9-12.78,12.93-20.19,16.97-22.88,4.04-2.69,9.42,14.13,15.48,25.57,6.06,11.44,11.29,15.6,14.39,6.79,3.1-8.81-1.61-32.5,5.79-20.32,7.4,12.18,12.11,22.95,28.26,37.75,16.15,14.8,42.39,37.68,36.33,23.55-6.06-14.13-10.77-28.26-14.8-37.68-4.04-9.42-13.03-24.89-5.51-17.49,7.52,7.4,23,24.89,41.84,37.68,15.13,10.27,47.6,30.5,61.9,34.24v-47.7s-79.52-44.77-96.34-55.61c-16.82-10.84-74.73-59.17-74.73-59.17Z"/>
      <path class="cls-8" d="m214.56,340.58l12.17-38.05s13.72-53.38,18.2-55.62,54.72-7.63,54.72-7.63l106.31,63.25,64.82,54.05v48.22H138.52l76.04-64.22Z"/>
      <path class="cls-9" d="m284.52,315.99c10.61,7.41,20.95,19.58,24.05,10.77,3.1-8.81,12.91-4.16,29.06,10.64,16.15,14.8,44.41,33.81,37.38,20.14-6.06-11.77-16.48-29.76,24.72-12.43,16.85,7.09,27.87-14.1,71.04,13.72v-23.32s-92.84-51.93-109.66-62.77c-13.39-8.62-68.77-52.76-68.77-52.76l-49.31,23.8-20.33,72.44s17.47,20.06,30.52,11.56c10.6-6.9,20.69-19.18,31.29-11.78Z"/>
      <path class="cls-1" d="m456.57,120.87v269.81H55.3V120.87h401.28m14.13-14.13H41.17v298.06h429.54V106.74h0Z"/>
    </g>
    <path class="cls-1" d="m450.7,126.74v258.3H61.17V126.74h389.54m20-20H41.17v298.3h429.54V106.74h0Z"/>
    <path d="m470.7,106.74v298.3H41.17V106.74h429.54m13-13H28.17v324.3h455.54V93.74h0Z"/>
    <rect class="cls-1" x="256" y="113.48" width="203.95" height="282.67"/>
    <circle class="cls-4" cx="425.93" cy="158.91" r="32.38"/>
    <circle class="cls-5" cx="298.02" cy="255.85" r="32.38"/>
    <circle class="cls-4" cx="298.02" cy="158.91" r="32.38"/>
    <circle class="cls-4" cx="362.28" cy="212.06" r="32.38"/>
    <g>
      <circle class="cls-8" cx="299.54" cy="352.79" r="32.38" transform="translate(-112.21 141.48) rotate(-22.5)"/>
      <circle class="cls-4" cx="425.93" cy="255.85" r="32.38" transform="translate(-70.9 262.14) rotate(-31.72)"/>
      <circle class="cls-8" cx="362.28" cy="309" r="32.38" transform="translate(-108.34 236.61) rotate(-31.72)"/>
      <circle class="cls-8" cx="425.93" cy="352.79" r="32.38" transform="translate(-102.58 189.85) rotate(-22.5)"/>
    </g>
  </g>
  <g id="TEXT">
    <text class="cls-2" transform="translate(0 -7.95)"><tspan x="0" y="0">IM</tspan><tspan class="cls-3" x="30.81" y="0">A</tspan><tspan x="47.25" y="0">GE </tspan><tspan class="cls-7" x="88.23" y="0">T</tspan><tspan x="103.83" y="0">O POIN</tspan><tspan class="cls-10" x="195.87" y="0">T</tspan><tspan x="211.29" y="0">S</tspan></text>
  </g>
</svg>