<?xml version="1.0" encoding="UTF-8"?>
<svg id="MLOPS_ICONS" data-name="MLOPS ICONS" xmlns="http://www.w3.org/2000/svg" viewBox="0 0 512 512">
  <defs>
    <style>
      .cls-1 {
        fill: #fff;
      }

      .cls-2 {
        fill: #fe3da6;
        stroke: #000;
        stroke-miterlimit: 10;
        stroke-width: 9.25px;
      }
    </style>
  </defs>
  <path class="cls-2" d="m10.77,372.32s38.11-129.77,68.77-158.1,66.46-46.49,95.72-49.58c29.25-3.1,32.24-5.96,32.24-5.96,0,0,28.35-29.1,64.82-34.59,36.47-5.49,87.14,5.35,135.48,35.3,48.34,29.96,77.16,34.75,81.75,34.39s-14.8,69.04-31.32,106.29c-16.52,37.25-63.18,96.26-183.81,69.5s-124.28-16.73-178.31-.33c-54.03,16.4-85.35,3.08-85.35,3.08Z"/>
  <g>
    <path d="m112.29,305.99c22.06-17.65,40.49-35.43,54.01-48.47,9.73-9.39,17.42-16.81,21-18.84,5.69-3.22,11.75-4.1,18.76-5.12,8.86-1.29,18.89-2.74,31.17-9.06,4.33-2.23,8.02-4.23,11.27-6,12.92-7.01,18.82-10.22,33.71-10.97.18,0,.36-.01.56-.01,3.93,0,11.43,1.63,20.93,3.69,19.49,4.23,48.95,10.63,85.19,11.48,3.42.08,6.76.12,9.93.12,11.18,0,19.88-.5,26.63-1.25-7.69,5.22-18.41,11.66-32.74,18.59-7.76,3.75-14.17,7.21-19.82,10.26-14.96,8.07-23.98,12.94-38.66,12.94-5.98,0-12.94-.82-21.29-2.5-4.02-.81-8.01-1.65-11.98-2.48-19.62-4.13-38.14-8.03-57.46-8.03-17.84,0-34.11,3.47-49.73,10.6-29.96,13.68-65.22,34.94-81.5,45.05Z"/>
    <path d="m282.77,212.15c3.43,0,11.08,1.66,19.95,3.59,19.66,4.27,49.38,10.72,86.06,11.59,3.46.08,6.84.12,10.05.12,2.98,0,5.8-.03,8.46-.1-4.87,2.75-10.38,5.65-16.58,8.65-7.85,3.8-14.31,7.28-20,10.35-14.8,7.98-22.95,12.38-36.47,12.38-5.67,0-12.34-.79-20.38-2.41-4-.81-8.03-1.65-11.94-2.48-19.86-4.18-38.61-8.13-58.41-8.13-18.52,0-35.41,3.6-51.65,11.02-12.73,5.81-26.25,12.88-38.87,19.88,6.1-5.72,11.63-11.05,16.51-15.76,8.74-8.44,17-16.4,20.07-18.14,4.93-2.8,10.32-3.58,17.15-4.57,8.76-1.27,19.66-2.85,32.62-9.53,4.38-2.25,8.09-4.27,11.36-6.04,12.66-6.87,17.9-9.72,31.74-10.42.1,0,.21,0,.32,0m0-9.25c-.28,0-.54,0-.79.02-19.9,1.01-25.33,6.39-46.87,17.48-21.55,11.09-36.15,6.37-50.09,14.27s-67.67,73.13-138.42,109.06c-.06.03-.09.05-.09.05.17,0,59.21-28.18,59.21-28.18,0,0,49.56-32,89.99-50.45,16.44-7.5,32.21-10.18,47.81-10.18,22.75,0,45.11,5.7,68.52,10.42,8.8,1.77,15.97,2.59,22.2,2.59,21.69,0,32.03-9.89,60.5-23.66,36.64-17.72,50.14-32.27,50.14-32.27,0,0-7,6.14-46.04,6.14-3.07,0-6.35-.04-9.83-.12-54.33-1.28-93.26-15.18-106.23-15.18h0Z"/>
  </g>
  <g>
    <path class="cls-1" d="m164.24,292.85c-11.9,0-23.75-2.16-31.29-3.87.51-.55,1.04-1.15,1.62-1.8,12.36-10.97,23.08-21.31,31.71-29.64,9.74-9.39,17.43-16.82,21.01-18.84,5.69-3.22,11.75-4.1,18.76-5.12,8.86-1.29,18.89-2.74,31.17-9.06,4.33-2.23,8.02-4.23,11.27-6,12.92-7.01,18.82-10.22,33.71-10.97.74-.04,1.46-.06,2.17-.06,6.03,0,11.39,1.31,19.5,3.29,6.14,1.5,13.79,3.37,24.2,5.25l.29.05h.29c8.5.46,11.04,2.3,11.3,2.97.46,1.18-.7,4.35-8.88,12.74-1.22,1.25-2.19,2.24-2.86,3.08-5,6.22-33.92,19.37-73.66,33.49-35.14,12.49-71.29,23.09-82.28,24.13-2.53.24-5.23.36-8.04.36h0Z"/>
    <path d="m284.38,212.1c5.47,0,10.61,1.26,18.4,3.16,6.21,1.52,13.93,3.41,24.48,5.31l.57.1.58.03c2.57.14,4.41.4,5.69.67-1.84,2.58-5.05,5.86-6.33,7.18-1.31,1.34-2.34,2.4-3.15,3.41-2.57,3.19-20.83,13.99-71.61,32.03-38.89,13.82-71.81,23-81.17,23.89-2.39.23-4.94.34-7.61.34-7.62,0-15.24-.93-21.65-2.03,10.35-9.37,19.41-18.11,26.9-25.33,8.75-8.44,17.01-16.41,20.08-18.15,4.93-2.8,10.32-3.58,17.15-4.57,8.76-1.27,19.66-2.85,32.62-9.53,4.38-2.25,8.09-4.27,11.36-6.04,12.66-6.87,17.9-9.71,31.74-10.42.66-.03,1.29-.05,1.93-.05m0-9.25c-.79,0-1.59.02-2.4.06-19.9,1.01-25.32,6.39-46.87,17.48-21.55,11.09-36.15,6.37-50.09,14.27-7.52,4.26-26.63,25.21-53.73,49.24-6.07,6.95-7.77,7.42-7.77,7.42,0,0,20.13,6.15,40.72,6.15,2.83,0,5.68-.12,8.48-.38,23.36-2.21,145.99-43.03,159.11-59.33,3.91-4.86,28.42-24.63-2.92-26.29-24.1-4.35-33.05-8.62-44.52-8.62h0Z"/>
  </g>
  <path class="cls-1" d="m249.02,160.82c0-7.37,13.6-12.63,20.69-14.94,13.08-4.25,19.25-7.8,39.32-4.25,9.14,1.62,21.86,6.44,33,11.21,6.36,2.72,4.67,12.16-2.23,12.52-12.96.68-27.49,1.62-35.71,2.77-12.74,1.78-35.63,5.69-46.77,7.63-3.55.62-6.93-1.77-7.54-5.32l-.77-9.62Z"/>
  <path class="cls-1" d="m353.64,301.84l4.47,9.84c1.99,4.37,7.14,6.3,11.5,4.31,0,0,33.82-16.49,38.15-26.69,2.73-6.43,1.35-12.7,1.35-12.7-1.99-4.37-7.14-6.3-11.5-4.31l-39.67,18.04c-4.37,1.99-6.3,7.14-4.31,11.5Z"/>
  <path class="cls-1" d="m320.72,299.94l.65-.19c3.65-1.05,7.4,1.27,8.09,5l3.4,18.29c.62,3.31-1.43,6.53-4.69,7.39l-.4.1c-3.58.94-7.21-1.33-7.93-4.95l-3.66-18.21c-.66-3.28,1.31-6.52,4.53-7.44Z"/>
</svg>