<?xml version="1.0" encoding="UTF-8"?>
<svg xmlns="http://www.w3.org/2000/svg" xmlns:xlink="http://www.w3.org/1999/xlink" viewBox="0 0 512 512">
  <defs>
    <style>
      .cls-1, .cls-2 {
        fill: #fff;
      }

      .cls-3 {
        letter-spacing: 0em;
      }

      .cls-4 {
        fill: #938c86;
      }

      .cls-2 {
        font-family: SourceSansPro-Semibold, 'Source Sans Pro';
        font-size: 30px;
        font-weight: 600;
      }

      .cls-5 {
        fill: #5e5a58;
      }

      .cls-6 {
        clip-path: url(#clippath);
      }

      .cls-7 {
        fill: none;
      }

      .cls-8 {
        fill: #014759;
      }

      .cls-9 {
        fill: url(#linear-gradient);
      }
    </style>
    <clipPath id="clippath">
      <rect class="cls-7" x="27.47" y="95.29" width="456.93" height="317.32" rx="126.1" ry="126.1"/>
    </clipPath>
    <linearGradient id="linear-gradient" x1="261.37" y1="-55.06" x2="261.37" y2="641.2" gradientUnits="userSpaceOnUse">
      <stop offset=".45" stop-color="#007da4"/>
      <stop offset=".47" stop-color="#0f85a9"/>
      <stop offset=".51" stop-color="#399ab8"/>
      <stop offset=".56" stop-color="#7cbcd0"/>
      <stop offset=".62" stop-color="#d8ebf1"/>
      <stop offset=".65" stop-color="#fff"/>
    </linearGradient>
  </defs>
  <g id="MLOPS_ICONS" data-name="MLOPS ICONS">
    <g class="cls-6">
      <g>
        <rect class="cls-9" x="-86.76" y="35.82" width="696.26" height="483.52"/>
        <path class="cls-4" d="m-86.76,418.08l119.63-44.74s165.78-99.41,173.05-103.04c7.27-3.64,88.7-12.36,88.7-12.36l172.32,102.52,129.42,113.47,13.26,45.03H-86.64l-.13-100.88Z"/>
        <path class="cls-1" d="m309.45,210.57h-22.9l-59.71,12.5s-56.71,49.21-91.61,74.3c-32.34,23.24-165.79,93.3-185.21,103.46l-36.78,17.26.21,28.46c20.58-8.42,88.52-41.74,97.44-44.72,13.09-4.36,22.82,5.69,41.51-4.36,22.02-11.85,29.55-14.77,45.91-24.12,16.36-9.35,64.16-21.41,50.34,6.95-8.36,17.15-19.44,40.88,5.64,22.34,8.42-6.23,24.62-17.09,35.63-24.72,11.01-7.63,28.19-4.2,29.28,17.61,1.09,21.81,2.18,29.45,12,35.99,9.82,6.54,16.36,49.08,18.54,23.99,2.18-25.08-2.66-69.8,11.76-90.52,14.42-20.72,20.96-32.72,27.51-37.08,6.54-4.36,15.27,22.9,25.08,41.44,9.82,18.54,18.3,25.29,23.33,11.01,5.03-14.28-2.61-52.69,9.39-32.94,12,19.75,19.63,37.2,45.81,61.19,26.17,23.99,68.71,61.08,58.89,38.17-9.82-22.9-17.45-45.81-23.99-61.08-6.54-15.27-21.12-40.35-8.92-28.36,12.2,12,37.28,40.35,67.82,61.08,24.53,16.64,77.16,49.44,100.34,55.5v-77.32s-128.89-72.57-156.16-90.14c-27.27-17.57-121.14-95.91-121.14-95.91Z"/>
        <path class="cls-5" d="m194.29,414.87l19.73-61.67s22.23-86.52,29.5-90.16c7.27-3.64,88.7-12.36,88.7-12.36l172.32,102.52,105.07,87.61v78.16H71.04l123.25-104.1Z"/>
        <path class="cls-8" d="m307.71,375c17.2,12.01,33.96,31.73,38.99,17.45,5.03-14.28,20.93-6.74,47.1,17.25,26.17,23.99,71.99,54.81,60.6,32.65-9.82-19.09-26.72-48.25,40.07-20.14,27.32,11.5,45.18-22.85,115.15,22.23v-37.81s-150.48-84.18-177.75-101.74c-21.7-13.98-111.47-85.52-111.47-85.52l-79.93,38.58-32.96,117.42s28.33,32.52,49.48,18.74c17.18-11.19,33.54-31.1,50.71-19.1Z"/>
        <path class="cls-1" d="m586.59,58.72v437.34H-63.86V58.72h650.45m22.9-22.9H-86.76v483.15h696.26V35.82h0Z"/>
      </g>
    </g>
    <path class="cls-1" d="m386.23,164.52v172.3H126.38v-172.3h259.85m13.34-13.34H113.04v198.99h286.54v-198.99h0Z"/>
    <path d="m399.57,151.18v198.99H113.04v-198.99h286.54m8.67-8.67H104.36v216.33h303.88v-216.33h0Z"/>
  </g>
  <g id="TEXT">
    <text class="cls-2" transform="translate(-2.95 -7.39)"><tspan x="0" y="0">IM</tspan><tspan class="cls-3" x="30.81" y="0">A</tspan><tspan x="47.25" y="0">GE UPRES</tspan></text>
  </g>
</svg>