<?xml version="1.0" encoding="UTF-8"?>
<svg xmlns="http://www.w3.org/2000/svg" viewBox="0 0 512 512">
  <defs>
    <style>
      .cls-1, .cls-2, .cls-3, .cls-4 {
        stroke: #020202;
        stroke-width: 10px;
      }

      .cls-1, .cls-2, .cls-3, .cls-4, .cls-5 {
        stroke-miterlimit: 10;
      }

      .cls-1, .cls-6 {
        fill: #ffbc00;
      }

      .cls-2 {
        fill: #5732ba;
      }

      .cls-7 {
        fill: #938c86;
      }

      .cls-8 {
        fill: #fff;
        font-family: SourceSansPro-Semibold, 'Source Sans Pro';
        font-size: 30px;
        font-weight: 600;
      }

      .cls-9 {
        letter-spacing: 0em;
      }

      .cls-3 {
        fill: #7cdee8;
      }

      .cls-4 {
        fill: #fe3da6;
      }

      .cls-10 {
        fill: #cd8106;
      }

      .cls-11 {
        letter-spacing: 0em;
      }

      .cls-12 {
        letter-spacing: 0em;
      }

      .cls-13 {
        letter-spacing: -.03em;
      }

      .cls-14 {
        fill: #606060;
      }

      .cls-5 {
        fill: none;
        stroke: #1d1d1b;
        stroke-width: 13px;
      }
    </style>
  </defs>
  <g id="MLOPS_ICONS" data-name="MLOPS ICONS">
    <path class="cls-7" d="m405.13,285.34h-17.23c-51.93,0-94.03-37.91-94.03-94.03v-83.47c0-51.93-42.09-94.03-94.02-94.03h-93.05c-51.93,0-94.04,42.09-94.04,94.03v298.33c0,51.93,42.1,94.03,94.03,94.03h298.34c51.93,0,94.03-42.1,94.03-94.03v-26.8c0-51.93-42.1-94.03-94.03-94.03Zm-5.77,111.63c-22.9,0-41.46-18.56-41.46-41.46s18.56-41.46,41.46-41.46,41.46,18.56,41.46,41.46-18.56,41.46-41.46,41.46Z"/>
    <path class="cls-7" d="m319.56,134.4v21.11c0,14.92,17.3,20.44,28.74,32.64,11.44,12.19,9.97,28.58,9.97,28.58v33.86c0,3.63,3.51,6.58,7.83,6.58h66.52c4.33,0,7.83-2.95,7.83-6.58v-33.86s-1.48-16.39,9.97-28.58c11.44-12.19,28.74-17.71,28.74-32.64v-21.11h-159.6Z"/>
    <path class="cls-10" d="m479.16,120.91v-21.11c0-10.31-5.69-47.93-9.2-70.19-1.52-9.63-11.3-16.82-22.87-16.82h-95.45c-11.57,0-21.35,7.19-22.87,16.82-3.51,22.25-9.2,59.87-9.2,70.19v21.11h159.6Z"/>
    <path class="cls-6" d="m328.14,32.32c.51-3.19.94-5.89,1.31-8.17,1.15-7.2,8.47-12.57,17.13-12.57h105.52c8.67,0,16,5.39,17.14,12.61,1.34,8.51,3.06,19.53,4.18,27.07.54,3.62,1.11,7.04,1.52,10.67.21,1.87.26,4.13.16,6.56-.27,6.52-9.05,8.4-11.99,2.57l-2.12-4.2c-2-3.97-7.36-4.69-10.35-1.4-.64.7-1.28,1.41-1.91,2.12-3.17,3.59-9.01,2.52-10.69-1.97-1.84-4.92-3.69-9.78-6.2-14.36-2.62-4.79-9.73-4.22-11.52.94-1.76,5.09-3.73,10.12-6.16,14.98s-9.79,4.55-11.64-.73l-6.71-19.04c-1.67-4.75-7.97-5.75-11.02-1.74-2.27,2.98-4.43,6.02-6.49,9.11-3.11,4.66-10.26,3.37-11.48-2.1l-2.26-10.16c-1.05-4.74-6.84-6.59-10.43-3.32-.06.06-.13.12-.19.18-3.77,3.46-9.87,1.19-10.53-3.89-.01-.08-.02-.16-.03-.24-.51-3.94-4.48-6.44-8.25-5.2l-7.01,2.3Z"/>
    <rect class="cls-14" x="319.56" y="110.19" width="159.6" height="24.21"/>
    <path class="cls-5" d="m475.06,63.44c-.03-.53-.08-1.03-.13-1.51-.4-3.63-.98-7.05-1.52-10.67-1.12-7.55-2.84-18.56-4.18-27.07-1.14-7.22-8.47-12.61-17.14-12.61h-105.52c-8.66,0-15.98,5.37-17.13,12.57-.37,2.28-.8,4.98-1.31,8.17l.2-.07c-3.53,22.47-8.79,57.63-8.79,67.55v55.7c0,14.92,17.3,20.44,28.74,32.64,11.44,12.19,9.97,28.58,9.97,28.58v33.86c0,3.63,3.51,6.58,7.83,6.58h66.52c4.33,0,7.83-2.95,7.83-6.58v-33.86s-1.48-16.39,9.97-28.58c11.44-12.19,28.74-17.71,28.74-32.64v-55.7c0-5.88-1.85-20.64-4.09-36.37Z"/>
    <path class="cls-5" d="m405.13,285.34h-17.23c-51.93,0-94.03-37.91-94.03-94.03v-83.47c0-51.93-42.09-94.03-94.02-94.03h-93.05c-51.93,0-94.04,42.09-94.04,94.03v298.33c0,51.93,42.1,94.03,94.03,94.03h298.34c51.93,0,94.03-42.1,94.03-94.03v-26.8c0-51.93-42.1-94.03-94.03-94.03Zm-5.77,111.63c-22.9,0-41.46-18.56-41.46-41.46s18.56-41.46,41.46-41.46,41.46,18.56,41.46,41.46-18.56,41.46-41.46,41.46Z"/>
    <path class="cls-1" d="m201.37,408.03h-56.33c-6.89-13.34-20.8-22.46-36.85-22.46-22.9,0-41.46,18.56-41.46,41.46s18.56,41.46,41.46,41.46c16.05,0,29.96-9.12,36.85-22.46h40.59l54.17,54.17h53.74l-92.17-92.17Z"/>
    <path class="cls-2" d="m142,294.7h-32.09c-6.73-13.8-20.89-23.31-37.28-23.31-22.9,0-41.46,18.56-41.46,41.46s18.56,41.46,41.46,41.46c15.71,0,29.38-8.74,36.41-21.62h17.22l167.5,167.5h53.74l-205.49-205.5Z"/>
    <path class="cls-3" d="m182.42,279.62v-93.78h-69.5c-5.41-16.61-21.01-28.62-39.42-28.62-22.9,0-41.46,18.56-41.46,41.46s18.56,41.46,41.46,41.46c13.44,0,25.37-6.4,32.95-16.3h37.98v71.52l204.84,204.84h53.74l-220.58-220.58Z"/>
    <path class="cls-4" d="m220.13,263.62V66.52h-74.58c-6.7-13.88-20.91-23.46-37.36-23.46-22.9,0-41.46,18.56-41.46,41.46s18.56,41.46,41.46,41.46c15.64,0,29.26-8.67,36.32-21.46h37.62v174.84l220.84,220.84h2.16c15.02,0,29.21-3.53,41.8-9.78l-226.79-226.79Z"/>
  </g>
  <g id="TEXT">
    <text class="cls-8" transform="translate(0 -7.95)"><tspan x="0" y="0">M</tspan><tspan class="cls-13" x="22.35" y="0">L</tspan><tspan class="cls-11" x="36.48" y="0">O</tspan><tspan class="cls-12" x="56.7" y="0">P</tspan><tspan class="cls-9" x="73.86" y="0">s</tspan></text>
  </g>
</svg>